<svg version="1.2" baseProfile="tiny-ps" xmlns="http://www.w3.org/2000/svg" viewBox="0 0 40 33" width="40" height="33">
	<title>2</title>
	<defs>
		<linearGradient id="grd1" gradientUnits="userSpaceOnUse"  x1="3.55" y1="0.026" x2="36.525" y2="33.002">
			<stop offset="0" stop-color="#ff3b49"  />
			<stop offset="1" stop-color="#ff3b49"  />
		</linearGradient>
	</defs>
	<style>
		tspan { white-space:pre }
		.shp0 { fill: url(#grd1) } 
	</style>
	<g id="2">
		<g id="Services">
			<g id="Logo">
				<path id="Diamond" class="shp0" d="M40.08 10.45C40.08 10.41 40.05 10.4 40.05 10.37C40.04 10.3 40.05 10.23 40.03 10.16L35.91 0.47C35.79 0.2 35.53 0.03 35.24 0.03L4.84 0.03C4.55 0.03 4.28 0.2 4.17 0.47L0.05 10.16C0.02 10.23 0.03 10.3 0.02 10.37C0.02 10.4 -0.01 10.41 -0.01 10.45C-0.01 10.46 0.01 10.47 0.01 10.49C0.02 10.65 0.06 10.8 0.17 10.92L19.49 32.75C19.51 32.77 19.54 32.77 19.55 32.79C19.61 32.83 19.65 32.87 19.71 32.91C19.72 32.91 19.73 32.94 19.75 32.94C19.84 32.98 19.94 33 20.03 33C20.13 33 20.23 32.98 20.33 32.94C20.35 32.94 20.35 32.91 20.36 32.9C20.42 32.87 20.47 32.83 20.52 32.79C20.53 32.77 20.56 32.77 20.58 32.75L39.9 10.92C40.01 10.8 40.05 10.65 40.07 10.49C40.07 10.47 40.08 10.46 40.08 10.45ZM24.96 1.47L28.52 9.73L11.56 9.73L15.11 1.47L24.96 1.47ZM28.51 11.17L20.03 30.47L11.57 11.17L28.51 11.17ZM9.98 11.17L17.51 28.34L2.32 11.17L9.98 11.17ZM30.09 11.17L37.75 11.17L22.56 28.34L30.09 11.17ZM38.27 9.73L30.09 9.73L26.54 1.47L34.76 1.47L38.27 9.73ZM5.32 1.47L13.54 1.47L9.98 9.73L1.81 9.73L5.32 1.47Z" />
			</g>
		</g>
	</g>
</svg>