<svg version="1.2" baseProfile="tiny-ps" xmlns="http://www.w3.org/2000/svg" viewBox="0 0 40 38" width="40" height="38">
	<title>2</title>
	<defs>
		<linearGradient id="grd1" gradientUnits="userSpaceOnUse"  x1="1.621" y1="0.157" x2="38.623" y2="37.158">
			<stop offset="0" stop-color="#ff3b49"  />
			<stop offset="1" stop-color="#ff3b49"  />
		</linearGradient>
	</defs>
	<style>
		tspan { white-space:pre }
		.shp0 { fill: url(#grd1) } 
	</style>
	<g id="2">
		<g id="Services">
			<g id="UI">
				<path id="Pencil" class="shp0" d="M39.7 13.07C38.65 10.25 37.1 7.71 35.09 5.51C33.09 3.32 30.7 1.55 27.98 0.24C27.67 0.09 27.3 0.14 27.05 0.38L9.56 16.34L7.55 18.18C7.44 18.27 7.34 18.39 7.28 18.53C7.28 18.55 7.27 18.58 7.26 18.6L2.55 30.81L0.55 36.03C0.43 36.32 0.5 36.65 0.71 36.89C0.87 37.07 1.1 37.16 1.33 37.16C1.4 37.16 1.48 37.15 1.56 37.12L6.94 35.6L19.59 32.01C19.66 31.99 19.74 31.96 19.82 31.91C19.86 31.88 19.89 31.85 19.93 31.82L22 29.94L39.48 13.98C39.73 13.75 39.82 13.38 39.7 13.07ZM3.78 32.27C3.81 32.29 3.85 32.31 3.89 32.33C4.24 32.55 4.58 32.8 4.85 33.1C5.13 33.41 5.35 33.76 5.54 34.13C5.56 34.17 5.57 34.21 5.58 34.25L2.71 35.06L3.78 32.27ZM18.95 30.46L7.23 33.78C7.2 33.71 7.14 33.65 7.11 33.58C6.84 33 6.51 32.44 6.09 31.98C5.66 31.51 5.14 31.14 4.58 30.82C4.51 30.78 4.46 30.71 4.4 30.68L8.77 19.33L10.08 18.14L11.14 19.29L20.25 29.27L18.95 30.46ZM21.48 28.14L18.84 25.25L32.74 12.56C32.92 12.39 33.01 12.17 33.01 11.94C33.01 11.74 32.94 11.54 32.79 11.38C32.48 11.04 31.95 11.02 31.61 11.33L17.71 24.01L17.17 23.41L15.08 21.13L28.98 8.45C29.16 8.28 29.25 8.06 29.25 7.82C29.25 7.63 29.18 7.43 29.03 7.26C28.72 6.93 28.19 6.91 27.85 7.21L13.95 19.9L11.31 17.01L27.76 1.99C30.08 3.18 32.13 4.74 33.86 6.64C35.6 8.54 36.96 10.72 37.93 13.13L21.48 28.14Z" />
			</g>
		</g>
	</g>
</svg>