<svg version="1.2" baseProfile="tiny-ps" xmlns="http://www.w3.org/2000/svg" viewBox="0 0 41 41" width="41" height="41">
	<title>2</title>
	<defs>
		<linearGradient id="grd1" gradientUnits="userSpaceOnUse"  x1="0.667" y1="0.053" x2="40.747" y2="40.133">
			<stop offset="0" stop-color="#ff3b49"  />
			<stop offset="0" stop-color="#ff3b49"  />
			<stop offset="1" stop-color="#ff3b49"  />
		</linearGradient>
	</defs>
	<style>
		tspan { white-space:pre }
		.shp0 { fill: url(#grd1) } 
	</style>
	<g id="2">
		<g id="Services">
			<g id="Management">
				<path id="Settings" class="shp0" d="M20.71 25.66C17.65 25.66 15.16 23.16 15.16 20.09C15.16 17.02 17.65 14.53 20.71 14.53C23.77 14.53 26.26 17.02 26.26 20.09C26.26 23.16 23.77 25.66 20.71 25.66ZM20.71 15.97C18.44 15.97 16.6 17.82 16.6 20.09C16.6 22.36 18.44 24.21 20.71 24.21C22.97 24.21 24.82 22.36 24.82 20.09C24.82 17.82 22.97 15.97 20.71 15.97ZM18.29 40.19C17.97 40.19 17.68 39.96 17.6 39.64L16.36 34.68C15.4 34.38 14.45 33.98 13.53 33.48L9.13 36.13C8.85 36.3 8.48 36.25 8.25 36.02L4.83 32.59C4.6 32.36 4.55 31.99 4.72 31.71L7.37 27.3C6.87 26.39 6.48 25.44 6.19 24.46L1.21 23.22C0.89 23.14 0.67 22.85 0.67 22.52L0.67 17.67C0.67 17.34 0.89 17.05 1.21 16.98L6.16 15.74C6.46 14.76 6.87 13.81 7.36 12.89L4.72 8.48C4.55 8.19 4.6 7.83 4.83 7.6L8.24 4.17C8.48 3.94 8.84 3.89 9.12 4.07L13.52 6.71C14.43 6.22 15.38 5.83 16.35 5.53L17.59 0.54C17.67 0.22 17.96 0 18.29 0L23.12 0C23.45 0 23.74 0.22 23.82 0.54L25.05 5.51C26.03 5.81 26.98 6.22 27.88 6.71L32.29 4.06C32.57 3.89 32.93 3.94 33.17 4.17L36.58 7.59C36.82 7.82 36.86 8.19 36.69 8.47L34.05 12.89C34.53 13.8 34.93 14.75 35.22 15.72L40.2 16.97C40.52 17.05 40.75 17.34 40.75 17.67L40.75 22.51C40.75 22.84 40.52 23.13 40.2 23.21L35.22 24.46C34.93 25.44 34.53 26.39 34.05 27.29L36.7 31.7C36.87 31.99 36.82 32.35 36.59 32.59L33.17 36.02C32.94 36.25 32.57 36.29 32.3 36.13L27.89 33.47C26.98 33.97 26.03 34.37 25.06 34.68L23.82 39.64C23.74 39.96 23.46 40.19 23.13 40.19L18.29 40.19L18.29 40.19ZM13.51 31.92C13.64 31.92 13.76 31.95 13.87 32.02C14.93 32.63 16.03 33.1 17.15 33.41C17.4 33.48 17.59 33.68 17.66 33.93L18.86 38.75L22.56 38.74L23.76 33.93C23.82 33.68 24.02 33.48 24.26 33.41C25.4 33.09 26.5 32.62 27.54 32.02C27.77 31.88 28.05 31.89 28.27 32.02L32.55 34.6L35.17 31.96L32.6 27.68C32.47 27.45 32.47 27.17 32.6 26.94C33.19 25.91 33.64 24.82 33.95 23.67C34.02 23.42 34.22 23.23 34.47 23.16L39.31 21.95L39.31 18.23L34.47 17.02C34.22 16.95 34.02 16.76 33.95 16.51C33.64 15.37 33.19 14.27 32.6 13.23C32.47 13.01 32.47 12.73 32.6 12.5L35.17 8.21L32.55 5.59L28.27 8.16C28.05 8.3 27.77 8.3 27.54 8.17C26.5 7.56 25.39 7.1 24.26 6.78C24.01 6.71 23.82 6.51 23.76 6.26L22.56 1.44L18.85 1.44L17.64 6.29C17.58 6.54 17.39 6.74 17.14 6.81C16 7.12 14.9 7.57 13.87 8.17C13.64 8.3 13.37 8.3 13.14 8.16L8.86 5.59L6.24 8.22L8.81 12.5C8.94 12.73 8.94 13.01 8.81 13.24C8.21 14.29 7.74 15.4 7.43 16.53C7.35 16.78 7.16 16.97 6.91 17.04L2.11 18.24L2.11 21.95L6.94 23.17C7.19 23.23 7.39 23.43 7.46 23.68C7.77 24.81 8.22 25.92 8.82 26.95C8.95 27.18 8.95 27.46 8.81 27.69L6.25 31.97L8.87 34.6L13.14 32.03C13.26 31.96 13.39 31.92 13.51 31.92Z" />
			</g>
		</g>
	</g>
</svg>