<svg version="1.2" baseProfile="tiny-ps" xmlns="http://www.w3.org/2000/svg" viewBox="0 0 44 33" width="44" height="33">
	<title>2</title>
	<defs>
		<linearGradient id="grd1" gradientUnits="userSpaceOnUse"  x1="5.503" y1="-0.004" x2="38.495" y2="32.989">
			<stop offset="0" stop-color="#ff3b49"  />
			<stop offset="1" stop-color="#ff3b49"  />
		</linearGradient>
	</defs>
	<style>
		tspan { white-space:pre }
		.shp0 { fill: url(#grd1) } 
	</style>
	<g id="2">
		<g id="Services">
			<g id="Animation">
				<path id="Truck 2" class="shp0" d="M43.95 16.45L43.95 6.04C43.95 5.61 43.6 5.26 43.16 5.26L28.12 5.26L28.12 0.77C28.12 0.34 27.77 0 27.34 0L0.8 0C0.36 0 0.01 0.34 0.01 0.77L0.01 26.97C0.01 27.4 0.36 27.75 0.8 27.75L3.46 27.75C3.9 27.75 4.25 27.4 4.25 26.97C4.25 26.54 3.9 26.19 3.46 26.19L1.58 26.19L1.58 1.55L26.55 1.55L26.55 6.04L26.55 21.14C26.55 21.57 26.9 21.92 27.34 21.92C27.77 21.92 28.12 21.57 28.12 21.14L28.12 6.82L34.46 6.82L34.46 16.54C34.46 16.97 34.82 17.32 35.25 17.32L42.38 17.32L42.38 26.19L40.53 26.19C40.09 26.19 39.74 26.54 39.74 26.97C39.74 27.4 40.09 27.75 40.53 27.75L43.16 27.75C43.6 27.75 43.95 27.4 43.95 26.97L43.95 16.63C43.96 16.59 43.99 16.57 43.99 16.54C43.99 16.5 43.96 16.48 43.95 16.45ZM42.38 15.76L36.04 15.76L36.04 6.82L42.38 6.82L42.38 15.76ZM32.6 20.95C29.24 20.95 26.51 23.65 26.51 26.97C26.51 30.29 29.24 32.99 32.6 32.99C35.95 32.99 38.68 30.29 38.68 26.97C38.68 23.65 35.95 20.95 32.6 20.95ZM32.6 31.43C30.11 31.43 28.09 29.43 28.09 26.97C28.09 24.51 30.11 22.51 32.6 22.51C35.08 22.51 37.11 24.51 37.11 26.97C37.11 29.43 35.08 31.43 32.6 31.43ZM11.4 20.95C8.04 20.95 5.31 23.65 5.31 26.97C5.31 30.29 8.04 32.99 11.4 32.99C14.75 32.99 17.49 30.29 17.49 26.97C17.49 23.65 14.75 20.95 11.4 20.95ZM11.4 31.43C8.91 31.43 6.88 29.43 6.88 26.97C6.88 24.51 8.91 22.51 11.4 22.51C13.88 22.51 15.91 24.51 15.91 26.97C15.91 29.43 13.88 31.43 11.4 31.43ZM24.67 26.19L19.33 26.19C18.89 26.19 18.54 26.54 18.54 26.97C18.54 27.4 18.89 27.75 19.33 27.75L24.67 27.75C25.1 27.75 25.45 27.4 25.45 26.97C25.45 26.54 25.1 26.19 24.67 26.19Z" />
			</g>
		</g>
	</g>
</svg>